# xmcd
#
# Track frame offsets:
#	150
#	14390
#	25855
#	41632
#	54500
#	71912
#	86692
#	100230
#	114467
#	124525
#	137122
#
# Disc length: 1976 seconds
#
# Revision: 0
# Processed by: cddbd v1.5.2PL0 Copyright (c) Steve Scherf et al.
# Submitted via: dBpowerAMP V4.0
#
DISCID=9307b60b
DTITLE=José Mendes - Não Aperta Aparicio
DYEAR=1900
DGENRE=Gauchesca
TTITLE0=Não Aperta Aparicio
TTITLE1=Saudades de Vacaria
TTITLE2=Vá Embora Tristeza
TTITLE3=Não Chores Chinoca
TTITLE4=Pedras no Caminho
TTITLE5=Esmeralda
TTITLE6=Laçaços da Saudade
TTITLE7=O Pranto dos Meus Olhos
TTITLE8=Pequena Paisagem de Amor
TTITLE9=Adeus Bragança
TTITLE10=Gaudério
EXTD=
EXTT0=
EXTT1=
EXTT2=
EXTT3=
EXTT4=
EXTT5=
EXTT6=
EXTT7=
EXTT8=
EXTT9=
EXTT10=
PLAYORDER=
